# xmcd CD database file
#
# Track frame offsets:
#	150
#	35975
#	62230
#	88435
#	120430
#	152355
#	191362
#	206975
#
# Disc length: 3264 seconds
#
# Revision: 0
# Processed by: cddbd v1.5.2PL0 Copyright (c) Steve Scherf et al.
# Submitted via: CDex 1.70beta2
#
DISCID=710cbe08
DTITLE=Jonathan Kreisberg - Shadowless
DYEAR=2011
DGENRE=Jazz
TTITLE0=Twenty One
TTITLE1=Stir The Stars
TTITLE2=Shadowless
TTITLE3=Zembekiko
TTITLE4=Long, Like A Mercury Day
TTITLE5=The Common Climb
TTITLE6=Defying Gravity
TTITLE7=Nice Work If You Can Get It
EXTD=YEAR: 2011
EXTT0=
EXTT1=
EXTT2=
EXTT3=
EXTT4=
EXTT5=
EXTT6=
EXTT7=
PLAYORDER=
